<svg width="24" height="24" viewBox="0 0 24 24" fill="none" xmlns="http://www.w3.org/2000/svg">
<g clip-path="url(#clip0_34_60)">
<path d="M16.624 13.92L19.341 16.636L11.988 23.989L4.636 16.637L7.353 13.92L11.989 18.58L16.624 13.92ZM21.261 9.284L24 12L21.285 14.716L18.568 12L21.261 9.284ZM11.989 9.284L14.705 11.976L11.988 14.693L9.272 12L11.988 9.285L11.989 9.284ZM2.716 9.284L5.41 12L2.718 14.692L0 12L2.716 9.284ZM11.99 0.0100021L19.342 7.34L16.625 10.055L11.989 5.419L7.354 10.079L4.637 7.363L11.989 0.0110021L11.99 0.0100021Z" fill="white"/>
</g>
<defs>
<clipPath id="clip0_34_60">
<rect width="24" height="24" fill="white"/>
</clipPath>
</defs>
</svg>
