<svg width="24" height="24" viewBox="0 0 24 24" fill="none" xmlns="http://www.w3.org/2000/svg">
<g clip-path="url(#clip0_34_55)">
<path d="M11.3848 15.275C12.4958 15.271 14.9248 15.262 14.8968 13.717C14.8698 12.137 12.5368 12.232 11.3998 12.279C11.2728 12.284 11.1598 12.289 11.0678 12.29L11.1198 15.277C11.1948 15.275 11.2848 15.275 11.3848 15.275ZM11.2668 10.922C12.1938 10.921 14.2168 10.919 14.1928 9.514C14.1668 8.077 12.2238 8.162 11.2748 8.204C11.1678 8.209 11.0748 8.213 10.9968 8.214L11.0438 10.923L11.2668 10.922Z" fill="white"/>
<path fill-rule="evenodd" clip-rule="evenodd" d="M9.09592 23.641C15.5259 25.244 22.0379 21.331 23.6409 14.903C25.2439 8.474 21.3299 1.962 14.8999 0.360001C8.47392 -1.244 1.96192 2.67 0.359921 9.1C-1.24308 15.528 2.66992 22.04 9.09692 23.642L9.09592 23.641ZM13.3779 6.621C15.1319 6.745 16.5279 7.259 16.7109 8.863C16.8469 10.037 16.3669 10.752 15.5879 11.166C16.8879 11.454 17.7129 12.209 17.5829 13.937C17.4219 16.082 15.8349 16.685 13.5569 16.855L13.5949 19.105L12.2389 19.13L12.1999 16.91C11.8489 16.916 11.4889 16.92 11.1159 16.918L11.1559 19.148L9.79992 19.172L9.75992 16.918L9.37692 16.921C9.18292 16.922 8.98692 16.923 8.79092 16.927L7.02492 16.957L7.26592 15.333C7.26592 15.333 8.26992 15.331 8.25192 15.316C8.63592 15.308 8.73292 15.031 8.75392 14.857L8.69292 11.3L8.78992 11.298H8.83592C8.78813 11.2925 8.74002 11.2902 8.69192 11.291L8.64792 8.751C8.59092 8.477 8.40692 8.161 7.85792 8.171C7.87292 8.151 6.87192 8.188 6.87192 8.188L6.84592 6.74L8.71792 6.708V6.715C8.99892 6.71 9.28792 6.7 9.58092 6.689L9.54292 4.46L10.8989 4.437L10.9369 6.621C11.2989 6.608 11.6629 6.594 12.0199 6.588L11.9819 4.418L13.3389 4.394L13.3779 6.623V6.621Z" fill="white"/>
</g>
<defs>
<clipPath id="clip0_34_55">
<rect width="24" height="24" fill="white"/>
</clipPath>
</defs>
</svg>
