<svg width="146" height="20" viewBox="0 0 146 20" fill="none" xmlns="http://www.w3.org/2000/svg">
<path d="M34.1054 13.9526C33.9568 14.7437 33.53 15.462 32.8962 15.9877C32.2625 16.5134 31.46 16.8148 30.6227 16.8416C30.2554 16.8525 29.8905 16.7813 29.5568 16.6338C29.2231 16.4862 28.9296 16.2663 28.6996 15.9913C28.4695 15.7164 28.3092 15.3939 28.2312 15.0494C28.1532 14.7048 28.1596 14.3476 28.2501 14.0059C28.3929 13.217 28.8142 12.4992 29.4433 11.9732C30.0724 11.4471 30.871 11.1447 31.705 11.1168C32.0772 11.0929 32.45 11.155 32.792 11.2979C33.134 11.4409 33.4353 11.6605 33.6705 11.9384C33.9056 12.2162 34.0679 12.5441 34.1436 12.8946C34.2193 13.2451 34.2062 13.608 34.1054 13.9526ZM35.2155 8.36091L34.9657 9.5325C34.6604 8.99747 34.1935 8.56361 33.6264 8.28797C33.0592 8.01233 32.4185 7.9078 31.7883 7.98813C30.0766 8.05406 28.4416 8.68704 27.1616 9.77935C25.8815 10.8717 25.0354 12.3558 24.7674 13.9792C24.1568 17.1878 25.7664 19.997 29.4711 19.997C30.1791 20.0221 30.8837 19.8912 31.5308 19.6143C32.1778 19.3373 32.7501 18.9217 33.2035 18.3993L32.9815 19.5975H36.4365L38.6149 8.40085H35.2155V8.36091ZM40.6268 8.37422H43.8875L43.6655 9.54582C44.0204 9.03285 44.51 8.61875 45.0849 8.34527C45.6598 8.07179 46.2997 7.9486 46.9401 7.98813L46.3018 11.3565C44.6646 11.3565 43.5268 11.7026 43.1521 13.4201L41.9589 19.5709H38.4484L40.6268 8.37422Z" fill="#D4D4D4"/>
<path d="M49.2851 3.98076L46.2742 19.5709H49.7846L50.8253 14.1656H50.8808L53.1286 19.5709H57.083L54.0305 13.2869L59.3725 8.37423H55.2515L51.2138 12.4349H51.1583L52.7956 3.98076H49.2851Z" fill="#D4D4D4"/>
<path d="M61.4399 12.7278C61.6922 12.1558 62.1155 11.6684 62.6564 11.3272C63.1972 10.986 63.8313 10.8062 64.4786 10.8106C64.7614 10.7788 65.0481 10.8045 65.3198 10.8862C65.5916 10.9678 65.8423 11.1035 66.0558 11.2844C66.2692 11.4653 66.4404 11.6874 66.5584 11.9361C66.6763 12.1848 66.7383 12.4545 66.7403 12.7278H61.4399ZM64.9781 7.98813C63.2386 8.07732 61.5795 8.71991 60.2629 9.81444C58.9464 10.909 58.0472 12.3931 57.7074 14.0325C57.5251 14.7529 57.5189 15.5041 57.6893 16.2272C57.8598 16.9503 58.2023 17.6258 58.69 18.2008C59.1778 18.7758 59.7975 19.2347 60.5009 19.5417C61.2042 19.8487 61.972 19.9954 62.7442 19.9703C63.991 19.9613 65.209 19.6102 66.2546 18.9585C67.4557 18.2435 68.4598 17.2617 69.1823 16.0961H65.6164C65.3296 16.4245 64.9707 16.688 64.5652 16.8675C64.1598 17.0471 63.718 17.1382 63.2714 17.1345C62.9682 17.1684 62.6608 17.1378 62.3712 17.0449C62.0817 16.9521 61.8169 16.7992 61.5958 16.5972C61.3746 16.3952 61.2025 16.149 61.0917 15.876C60.9808 15.603 60.9339 15.31 60.9543 15.0177H69.7096C69.8275 14.7349 69.9113 14.4401 69.9593 14.139C70.6254 10.6508 68.5441 7.98813 64.9781 7.98813Z" fill="#D4D4D4"/>
<path d="M20.1192 3.98076L13.9586 12.8609H13.9031V3.98076H10.9199L0 19.5709H4.23197L10.3649 10.6908H10.4204V19.5709H13.4313L19.5642 10.6908H19.6197V19.5709H23.1301V3.98076H20.1192ZM78.8256 8.37423H76.6195L77.2577 5.05916H74.1913L73.9415 6.39051C73.8686 6.97168 73.569 7.50481 73.1031 7.8827C72.6372 8.26059 72.0395 8.45523 71.4301 8.42748L70.9028 10.9038H72.6372L70.9583 19.5709H74.441L76.12 10.9038H78.3539L78.8256 8.37423Z" fill="#D4D4D4"/>
<path d="M136.158 3.99406H139.641L138.586 9.54581C138.947 9.02251 139.448 8.60184 140.036 8.32782C140.625 8.05379 141.279 7.93647 141.93 7.98813C142.491 7.9588 143.051 8.05686 143.564 8.27433C144.078 8.49179 144.531 8.82252 144.886 9.2396C145.635 10.3313 145.552 11.3298 145.163 13.3269L143.97 19.5842H140.487L141.653 13.4866C141.764 12.9541 142.097 11.1301 140.265 11.1301C139.649 11.1352 139.057 11.3626 138.607 11.7671C138.157 12.1716 137.882 12.7236 137.837 13.3135L136.63 19.5709H133.203L136.158 3.99406ZM121.478 8.37422H119.328L119.924 5.05915H116.858L116.552 6.33725C116.48 6.91842 116.18 7.45155 115.714 7.82944C115.248 8.20733 114.65 8.40197 114.041 8.37422L113.569 10.9038H115.29L113.625 19.5709H117.108L118.773 10.9038H121.006L121.478 8.37422ZM104.675 16.8416C105.525 16.8299 106.343 16.5354 106.991 16.0084C107.639 15.4814 108.076 14.7546 108.227 13.9526C108.328 13.608 108.341 13.2451 108.265 12.8946C108.19 12.5441 108.028 12.2162 107.792 11.9383C107.557 11.6605 107.256 11.4409 106.914 11.2979C106.572 11.155 106.199 11.0929 105.827 11.1168C104.993 11.1447 104.194 11.4471 103.565 11.9732C102.936 12.4992 102.515 13.217 102.372 14.0059C102.281 14.3476 102.275 14.7048 102.353 15.0494C102.431 15.3939 102.591 15.7164 102.821 15.9913C103.051 16.2663 103.345 16.4862 103.679 16.6338C104.012 16.7813 104.377 16.8525 104.745 16.8416M110.628 19.5043H107.103L107.325 18.3061C106.873 18.848 106.295 19.2807 105.637 19.5697C104.98 19.8587 104.26 19.9959 103.537 19.9703C99.8327 19.9703 98.2093 17.1612 98.8337 13.9526C99.1071 12.3362 99.9537 10.8599 101.23 9.77317C102.507 8.68644 104.136 8.05591 105.841 7.98813C106.465 7.92142 107.096 8.03535 107.652 8.3153C108.209 8.59524 108.665 9.0284 108.963 9.55913L109.212 8.38754H112.667L110.628 19.5043ZM103.926 0L97.1271 3.99406H99.0557L92.8951 12.8609V3.99406H89.8286L83.668 12.8609V3.99406H80.1021V19.5709H83.1407L89.3014 10.6508V19.5709H92.3123L103.26 3.99406H104.98L103.926 0ZM132.87 15.3239C132.285 16.6612 131.312 17.8095 130.068 18.633C128.824 19.4565 127.36 19.9206 125.849 19.9703C125.058 20.0124 124.267 19.8742 123.542 19.567C122.817 19.2599 122.178 18.7924 121.677 18.2029C121.177 17.6134 120.829 16.9186 120.661 16.1753C120.494 15.4319 120.512 14.6612 120.715 13.926C121.06 12.2817 121.977 10.7987 123.316 9.71989C124.655 8.6411 126.335 8.0305 128.083 7.98813C128.756 7.94634 129.43 8.0371 130.065 8.25482C130.7 8.47255 131.281 8.81263 131.774 9.25414C132.266 9.69564 132.66 10.2292 132.929 10.822C133.199 11.4148 133.339 12.0543 133.342 12.7011H129.803C129.703 12.218 129.418 11.7882 129.005 11.4953C128.592 11.2025 128.08 11.0675 127.569 11.1168C126.754 11.1293 125.971 11.4225 125.362 11.9431C124.753 12.4637 124.36 13.1769 124.253 13.9526C124.136 14.2861 124.105 14.6419 124.163 14.9894C124.221 15.3369 124.366 15.6657 124.586 15.9474C124.806 16.2291 125.094 16.4553 125.425 16.6065C125.756 16.7576 126.121 16.8292 126.487 16.815C127.043 16.8083 127.588 16.6683 128.072 16.4079C128.557 16.1475 128.966 15.7748 129.262 15.3239H132.828H132.87Z" fill="#7A7A7A"/>
</svg>
