<svg width="28" height="28" viewBox="0 0 28 28" fill="none" xmlns="http://www.w3.org/2000/svg">
<path d="M11.585 15.155C11.7017 15.155 14.4084 15.2717 16.0184 14.875H16.03C17.885 14.42 20.4634 13.1133 21.1284 8.84333C21.1284 8.84333 22.61 3.5 15.26 3.5H8.94835C8.37669 3.5 7.88669 3.92 7.79335 4.48L5.11002 21.4667C5.05169 21.8167 5.33169 22.1433 5.68169 22.1433H9.68335L10.6634 15.9367C10.7334 15.4933 11.1184 15.155 11.585 15.155Z" fill="white"/>
<path d="M22.155 9.67167C21.21 14.0233 18.235 16.3217 13.4983 16.3217H11.7833L10.5816 23.9283C10.535 24.2317 10.7683 24.5 11.0716 24.5H13.2883C13.685 24.5 14.035 24.2083 14.0933 23.8117C14.1866 23.345 14.7 19.9383 14.805 19.355C14.8633 18.9583 15.2133 18.6667 15.61 18.6667H16.1233C19.4133 18.6667 21.9916 17.325 22.75 13.4633C23.0533 11.9 22.89 10.6167 22.155 9.67167Z" fill="white"/>
</svg>
